<?xml version="1.0" encoding="utf-8"?>
<!-- Generator: Adobe Illustrator 18.1.0, SVG Export Plug-In . SVG Version: 6.00 Build 0)  -->
<!DOCTYPE svg PUBLIC "-//W3C//DTD SVG 1.1//EN" "http://www.w3.org/Graphics/SVG/1.1/DTD/svg11.dtd">
<svg version="1.1" id="Layer_1" xmlns="http://www.w3.org/2000/svg" xmlns:xlink="http://www.w3.org/1999/xlink" x="0px" y="0px"
	 viewBox="0 0 458.3 103.9" enable-background="new 0 0 458.3 103.9" xml:space="preserve">
<g>
	<path fill="#0D2E41" d="M26.8,46.4h17.2l-5.5,38.8c-1.4,10.1-6.2,17.2-19.6,17.2S2.8,95.2,4.2,85.1l9.4-66.4
		C14.9,8.7,19.7,1.6,33.1,1.6c13,0,16,7.1,14.6,17.2l-1.5,10.8H35.5l1.5-10.8c0.6-4.2-0.4-7.4-5.3-7.4c-4.9,0-6.7,3.2-7.3,7.4
		l-9.4,66.4c-0.6,4.2,0.4,7.4,5.3,7.4s6.7-3.2,7.3-7.4l4.1-28.7h-6.3L26.8,46.4z"/>
	<path fill="#0D2E41" d="M89.7,101H78.6l0.7-21.3H66.7L61.6,101H50.5L77,3h13.7L89.7,101z M69.1,69.6h10.5l2-50.5L69.1,69.6z"/>
	<path fill="#0D2E41" d="M118.8,3h10.9l-12.3,87.5h14.3l-1.4,10.5h-25.2L118.8,3z"/>
	<path fill="#0D2E41" d="M179.3,101h-11.1l0.7-21.3h-12.6l-5.2,21.3h-11.1l26.5-98h13.7L179.3,101z M158.7,69.6h10.5l2-50.5
		L158.7,69.6z"/>
	<path fill="#0D2E41" d="M218.1,35.6l12-32.6h11.6l-20.2,47.2L229,101h-11.6L214,64.7L200.7,101h-11.6l21.4-50.8L203.8,3h11.6
		L218.1,35.6z"/>
	<path fill="#0D2E41" d="M251.1,101l5.5-39.6L251.8,3h11.5l1,42.3L277.5,3h11.5l-21.4,58.4l-5.5,39.6H251.1z"/>
	<path fill="#0D2E41" d="M310.6,101l1-7l29.8-80.5h-18.8L324.2,3h30.5l-1,7l-30,80.5H343l-1.4,10.5H310.6z"/>
	<path fill="#0D2E41" d="M358.4,85.1l9.4-66.4c1.4-10.1,6.2-17.2,19.6-17.2s16.2,7.1,14.8,17.2l-9.4,66.4
		c-1.4,10.1-6.2,17.2-19.6,17.2S357,95.2,358.4,85.1z M369.3,85.1c-0.6,4.2,0.4,7.4,5.3,7.4s6.7-3.2,7.3-7.4l9.4-66.4
		c0.6-4.2-0.4-7.4-5.3-7.4c-4.9,0-6.7,3.2-7.3,7.4L369.3,85.1z"/>
	<path fill="#0D2E41" d="M410.3,85.1l9.4-66.4c1.4-10.1,6.2-17.2,19.6-17.2s16.2,7.1,14.8,17.2l-9.4,66.4
		c-1.4,10.1-6.2,17.2-19.6,17.2S408.9,95.2,410.3,85.1z M421.3,85.1c-0.6,4.2,0.4,7.4,5.3,7.4s6.7-3.2,7.3-7.4l9.4-66.4
		c0.6-4.2-0.4-7.4-5.3-7.4c-4.9,0-6.7,3.2-7.3,7.4L421.3,85.1z"/>
</g>
</svg>
