<?xml version="1.0" encoding="UTF-8" standalone="no"?>
<!-- Created with Inkscape (http://www.inkscape.org/) -->

<svg
   xmlns:dc="http://purl.org/dc/elements/1.1/"
   xmlns:cc="http://creativecommons.org/ns#"
   xmlns:rdf="http://www.w3.org/1999/02/22-rdf-syntax-ns#"
   xmlns:svg="http://www.w3.org/2000/svg"
   xmlns="http://www.w3.org/2000/svg"
   xmlns:sodipodi="http://sodipodi.sourceforge.net/DTD/sodipodi-0.dtd"
   xmlns:inkscape="http://www.inkscape.org/namespaces/inkscape"
   width="1150"
   height="320"
   id="svg2985"
   version="1.1"
   inkscape:version="0.48.5 r10040"
   sodipodi:docname="ic_toolbar_icon.svg">
  <defs
     id="defs2987" />
  <sodipodi:namedview
     id="base"
     pagecolor="#ffffff"
     bordercolor="#666666"
     borderopacity="1.0"
     inkscape:pageopacity="0.0"
     inkscape:pageshadow="2"
     inkscape:zoom="0.70710682"
     inkscape:cx="723.07556"
     inkscape:cy="265.85996"
     inkscape:current-layer="layer1"
     showgrid="true"
     inkscape:grid-bbox="true"
     inkscape:document-units="px"
     showguides="true"
     inkscape:guide-bbox="true"
     inkscape:window-width="1366"
     inkscape:window-height="702"
     inkscape:window-x="0"
     inkscape:window-y="27"
     inkscape:window-maximized="1">
    <sodipodi:guide
       orientation="1,0"
       position="40,51"
       id="guide2993" />
    <sodipodi:guide
       orientation="1,0"
       position="280,334.5"
       id="guide2995" />
    <sodipodi:guide
       orientation="0,1"
       position="13.5,280"
       id="guide2997" />
    <sodipodi:guide
       orientation="0,1"
       position="347.18943,40.305086"
       id="guide2999" />
    <sodipodi:guide
       orientation="0,1"
       position="-267.28635,-226.27416"
       id="guide3028" />
    <sodipodi:guide
       orientation="1,0"
       position="1109.9808,264.6347"
       id="guide3154" />
  </sodipodi:namedview>
  <metadata
     id="metadata2990">
    <rdf:RDF>
      <cc:Work
         rdf:about="">
        <dc:format>image/svg+xml</dc:format>
        <dc:type
           rdf:resource="http://purl.org/dc/dcmitype/StillImage" />
        <dc:title></dc:title>
      </cc:Work>
    </rdf:RDF>
  </metadata>
  <g
     id="layer1"
     inkscape:label="Layer 1"
     inkscape:groupmode="layer">
    <g
       transform="matrix(2.3765601,0,0,2.3765601,30.018448,36.33516)"
       id="g3">
      <path
         style="fill:#0d2e41"
         inkscape:connector-curvature="0"
         d="M 26.8,46.4 H 44 L 38.5,85.2 C 37.1,95.3 32.3,102.4 18.9,102.4 5.5,102.4 2.8,95.2 4.2,85.1 l 9.4,-66.4 c 1.3,-10 6.1,-17.1 19.5,-17.1 13,0 16,7.1 14.6,17.2 L 46.2,29.6 H 35.5 L 37,18.8 c 0.6,-4.2 -0.4,-7.4 -5.3,-7.4 -4.9,0 -6.7,3.2 -7.3,7.4 L 15,85.2 c -0.6,4.2 0.4,7.4 5.3,7.4 4.9,0 6.7,-3.2 7.3,-7.4 l 4.1,-28.7 h -6.3 l 1.4,-10.1 z"
         id="path5" />
      <path
         style="fill:#0d2e41"
         inkscape:connector-curvature="0"
         d="M 89.7,101 H 78.6 L 79.3,79.7 H 66.7 L 61.6,101 H 50.5 L 77,3 h 13.7 l -1,98 z M 69.1,69.6 h 10.5 l 2,-50.5 -12.5,50.5 z"
         id="path7" />
      <path
         style="fill:#0d2e41"
         inkscape:connector-curvature="0"
         d="m 118.8,3 h 10.9 l -12.3,87.5 h 14.3 L 130.3,101 H 105.1 L 118.8,3 z"
         id="path9" />
      <path
         style="fill:#0d2e41"
         inkscape:connector-curvature="0"
         d="m 179.3,101 h -11.1 l 0.7,-21.3 H 156.3 L 151.1,101 H 140 L 166.5,3 h 13.7 l -0.9,98 z M 158.7,69.6 h 10.5 l 2,-50.5 -12.5,50.5 z"
         id="path11" />
      <path
         style="fill:#0d2e41"
         inkscape:connector-curvature="0"
         d="M 218.1,35.6 230.1,3 h 11.6 L 221.5,50.2 229,101 H 217.4 L 214,64.7 200.7,101 H 189.1 L 210.5,50.2 203.8,3 h 11.6 l 2.7,32.6 z"
         id="path13" />
      <path
         style="fill:#0d2e41"
         inkscape:connector-curvature="0"
         d="M 251.1,101 256.6,61.4 251.8,3 h 11.5 l 1,42.3 L 277.5,3 H 289 l -21.4,58.4 -5.5,39.6 h -11 z"
         id="path15" />
      <path
         style="fill:#0d2e41"
         inkscape:connector-curvature="0"
         d="m 310.6,101 1,-7 29.8,-80.5 H 322.6 L 324.2,3 h 30.5 l -1,7 -30,80.5 H 343 l -1.4,10.5 h -31 z"
         id="path17" />
      <path
         style="fill:#0d2e41"
         inkscape:connector-curvature="0"
         d="m 358.4,85.1 9.4,-66.4 C 369.2,8.6 374,1.5 387.4,1.5 c 13.4,0 16.2,7.1 14.8,17.2 l -9.4,66.4 c -1.4,10.1 -6.2,17.2 -19.6,17.2 -13.4,0 -16.2,-7.1 -14.8,-17.2 z m 10.9,0 c -0.6,4.2 0.4,7.4 5.3,7.4 4.9,0 6.7,-3.2 7.3,-7.4 l 9.4,-66.4 c 0.6,-4.2 -0.4,-7.4 -5.3,-7.4 -4.9,0 -6.7,3.2 -7.3,7.4 l -9.4,66.4 z"
         id="path19" />
      <path
         style="fill:#0d2e41"
         inkscape:connector-curvature="0"
         d="m 410.3,85.1 9.4,-66.4 c 1.4,-10.1 6.2,-17.2 19.6,-17.2 13.4,0 16.2,7.1 14.8,17.2 l -9.4,66.4 c -1.4,10.1 -6.2,17.2 -19.6,17.2 -13.4,0 -16.2,-7.1 -14.8,-17.2 z m 11,0 c -0.6,4.2 0.4,7.4 5.3,7.4 4.9,0 6.7,-3.2 7.3,-7.4 l 9.4,-66.4 c 0.6,-4.2 -0.4,-7.4 -5.3,-7.4 -4.9,0 -6.7,3.2 -7.3,7.4 l -9.4,66.4 z"
         id="path21" />
    </g>
  </g>
</svg>
