<?xml version="1.0" encoding="UTF-8" standalone="no"?>
<!-- Created with Inkscape (http://www.inkscape.org/) -->

<svg
   xmlns:dc="http://purl.org/dc/elements/1.1/"
   xmlns:cc="http://creativecommons.org/ns#"
   xmlns:rdf="http://www.w3.org/1999/02/22-rdf-syntax-ns#"
   xmlns:svg="http://www.w3.org/2000/svg"
   xmlns="http://www.w3.org/2000/svg"
   xmlns:xlink="http://www.w3.org/1999/xlink"
   xmlns:sodipodi="http://sodipodi.sourceforge.net/DTD/sodipodi-0.dtd"
   xmlns:inkscape="http://www.inkscape.org/namespaces/inkscape"
   width="480"
   height="480"
   id="svg2985"
   version="1.1"
   inkscape:version="0.48.5 r10040"
   sodipodi:docname="ic_launcher.svg">
  <defs
     id="defs2987">
    <linearGradient
       inkscape:collect="always"
       xlink:href="#circle-1_2_"
       id="linearGradient3004"
       gradientUnits="userSpaceOnUse"
       x1="-239"
       y1="202"
       x2="-239"
       y2="602" />
    <linearGradient
       id="circle-1_2_"
       gradientUnits="userSpaceOnUse"
       x1="-239"
       y1="202"
       x2="-239"
       y2="602">
      <stop
         offset="0"
         style="stop-color:#FFFFFF"
         id="stop5" />
      <stop
         offset="1"
         style="stop-color:#000000"
         id="stop7" />
    </linearGradient>
  </defs>
  <sodipodi:namedview
     id="base"
     pagecolor="#ffffff"
     bordercolor="#666666"
     borderopacity="1.0"
     inkscape:pageopacity="0.0"
     inkscape:pageshadow="2"
     inkscape:zoom="1.4142136"
     inkscape:cx="210.58018"
     inkscape:cy="137.58593"
     inkscape:current-layer="layer1"
     showgrid="true"
     inkscape:grid-bbox="true"
     inkscape:document-units="px"
     showguides="true"
     inkscape:guide-bbox="true"
     inkscape:window-width="1366"
     inkscape:window-height="702"
     inkscape:window-x="0"
     inkscape:window-y="27"
     inkscape:window-maximized="1">
    <sodipodi:guide
       orientation="1,0"
       position="9.9999995,406.99998"
       id="guide2993" />
    <sodipodi:guide
       orientation="0,1"
       position="511.99997,9.9999995"
       id="guide2999" />
    <sodipodi:guide
       orientation="0,1"
       position="499.99997,469.99998"
       id="guide3028" />
    <sodipodi:guide
       orientation="1,0"
       position="469.99998,158.99999"
       id="guide2995" />
  </sodipodi:namedview>
  <metadata
     id="metadata2990">
    <rdf:RDF>
      <cc:Work
         rdf:about="">
        <dc:format>image/svg+xml</dc:format>
        <dc:type
           rdf:resource="http://purl.org/dc/dcmitype/StillImage" />
      </cc:Work>
    </rdf:RDF>
  </metadata>
  <g
     id="layer1"
     inkscape:label="Layer 1"
     inkscape:groupmode="layer"
     transform="translate(0,160)">
    <g
       transform="translate(439.63823,-360.66098)"
       id="g2993">
      <circle
         transform="matrix(1.1490926,0,0,1.1504237,75.621139,-20.574164)"
         style="fill:#c2e82f"
         sodipodi:ry="200"
         sodipodi:rx="200"
         sodipodi:cy="401"
         sodipodi:cx="-239"
         r="200"
         cy="401"
         cx="-239"
         id="circle-1"
         d="m -39,401 c 0,110.45695 -89.54305,200 -200,200 -110.45695,0 -200,-89.54305 -200,-200 0,-110.45695 89.54305,-200 200,-200 110.45695,0 200,89.54305 200,200 z" />
      <circle
         transform="matrix(1.1490926,0,0,1.1504237,75.621139,-20.574164)"
         style="opacity:0.2;fill:url(#linearGradient3004)"
         sodipodi:ry="200"
         sodipodi:rx="200"
         sodipodi:cy="401"
         sodipodi:cx="-239"
         r="200"
         cy="401"
         cx="-239"
         id="circle-1_1_"
         d="m -39,401 c 0,110.45695 -89.54305,200 -200,200 -110.45695,0 -200,-89.54305 -200,-200 0,-110.45695 89.54305,-200 200,-200 110.45695,0 200,89.54305 200,200 z" />
      <path
         style="fill:#0d2e41"
         inkscape:connector-curvature="0"
         d="m -84.44746,324.89807 -84.3434,225.02288 h 53.89245 l -2.98764,22.5483 h -79.4023 l 1.83854,-14.9555 84.3434,-224.67775 h -52.85826 l 3.33237,-22.89343 h 78.253207 l -2.068367,14.9555 z m -118.47145,56.25572 h -23.21167 l 4.13674,-29.22076 c 1.83854,-12.7697 -1.83855,-24.38898 -17.23639,-24.38898 -16.0873,0 -22.06258,10.12373 -24.01604,24.38898 l -25.05022,178.54576 c -1.83855,13.45996 1.83855,24.73411 17.23639,24.73411 16.0873,0 22.06258,-10.12373 24.01604,-24.73411 l 11.2611,-79.49428 h -20.68366 l 2.98764,-21.74301 h 44.24006 l -14.24874,101.23729 c -3.79201,27.03496 -16.0873,45.78686 -50.56008,45.78686 -34.47278,0 -41.59715,-18.7519 -37.80515,-45.78686 l 25.05022,-178.54576 c 3.79201,-27.03496 16.0873,-45.78686 50.56008,-45.78686 33.66841,0 41.25242,18.7519 37.46042,45.78686 l -4.13674,29.22076 z"
         id="path-1" />
    </g>
  </g>
</svg>
