<?xml version="1.0" encoding="UTF-8" standalone="no"?>
<!-- Created with Inkscape (http://www.inkscape.org/) -->

<svg
   xmlns:dc="http://purl.org/dc/elements/1.1/"
   xmlns:cc="http://creativecommons.org/ns#"
   xmlns:rdf="http://www.w3.org/1999/02/22-rdf-syntax-ns#"
   xmlns:svg="http://www.w3.org/2000/svg"
   xmlns="http://www.w3.org/2000/svg"
   xmlns:sodipodi="http://sodipodi.sourceforge.net/DTD/sodipodi-0.dtd"
   xmlns:inkscape="http://www.inkscape.org/namespaces/inkscape"
   width="1150"
   height="320"
   id="svg2985"
   version="1.1"
   inkscape:version="0.48.5 r10040"
   sodipodi:docname="ic_toolbar_icon.svg">
  <defs
     id="defs2987" />
  <sodipodi:namedview
     id="base"
     pagecolor="#ffffff"
     bordercolor="#666666"
     borderopacity="1.0"
     inkscape:pageopacity="0.0"
     inkscape:pageshadow="2"
     inkscape:zoom="0.70710682"
     inkscape:cx="472.05267"
     inkscape:cy="265.85996"
     inkscape:current-layer="layer1"
     showgrid="true"
     inkscape:grid-bbox="true"
     inkscape:document-units="px"
     showguides="true"
     inkscape:guide-bbox="true"
     inkscape:window-width="1366"
     inkscape:window-height="702"
     inkscape:window-x="0"
     inkscape:window-y="27"
     inkscape:window-maximized="1">
    <sodipodi:guide
       orientation="1,0"
       position="40,51"
       id="guide2993" />
    <sodipodi:guide
       orientation="1,0"
       position="280,334.5"
       id="guide2995" />
    <sodipodi:guide
       orientation="0,1"
       position="13.5,280"
       id="guide2997" />
    <sodipodi:guide
       orientation="0,1"
       position="347.18943,40.305086"
       id="guide2999" />
    <sodipodi:guide
       orientation="0,1"
       position="-267.28635,-226.27416"
       id="guide3028" />
    <sodipodi:guide
       orientation="1,0"
       position="1109.9808,264.6347"
       id="guide3154" />
  </sodipodi:namedview>
  <metadata
     id="metadata2990">
    <rdf:RDF>
      <cc:Work
         rdf:about="">
        <dc:format>image/svg+xml</dc:format>
        <dc:type
           rdf:resource="http://purl.org/dc/dcmitype/StillImage" />
        <dc:title />
      </cc:Work>
    </rdf:RDF>
  </metadata>
  <g
     id="layer1"
     inkscape:label="Layer 1"
     inkscape:groupmode="layer">
    <path
       id="path5"
       d="m 93.710259,146.60755 h 40.876831 l -13.07108,92.21053 c -3.32718,24.00326 -14.73467,40.87683 -46.580576,40.87683 C 43.089529,279.69491 36.672816,262.58368 40,238.58042 L 62.339665,80.776834 c 3.089528,-23.765601 14.497017,-40.639178 46.342925,-40.639178 30.89528,0 38.02496,16.873577 34.69777,40.876834 l -3.56484,25.66685 h -25.42919 l 3.56484,-25.66685 c 1.42594,-9.981553 -0.95062,-17.586545 -12.59577,-17.586545 -11.645141,0 -15.92295,7.604992 -17.348886,17.586545 L 65.666849,238.81808 c -1.425936,9.98155 0.950625,17.58655 12.595769,17.58655 11.645145,0 15.922953,-7.605 17.348889,-17.58655 L 105.3554,170.61081 H 90.383075 l 3.327184,-24.00326 z"
       inkscape:connector-curvature="0"
       style="fill:#000000;fill-opacity:1" />
    <path
       id="path7"
       d="m 243.19589,276.36773 h -26.37982 l 1.66359,-50.62073 h -29.94465 l -12.12046,50.62073 H 150.03473 L 213.01358,43.46484 h 32.55887 l -2.37656,232.90289 z m -48.95714,-74.62399 h 24.95388 l 4.75312,-120.016282 -29.707,120.016282 z"
       inkscape:connector-curvature="0"
       style="fill:#000000;fill-opacity:1" />
    <path
       id="path9"
       d="m 312.35379,43.46484 h 25.9045 L 309.0266,251.41385 h 33.98481 l -3.32718,24.95388 H 279.79491 L 312.35379,43.46484 z"
       inkscape:connector-curvature="0"
       style="fill:#000000;fill-opacity:1" />
    <path
       id="path11"
       d="m 456.13567,276.36773 h -26.37981 l 1.66359,-50.62073 h -29.94466 l -12.35811,50.62073 H 362.73686 L 425.7157,43.46484 h 32.55888 l -2.13891,232.90289 z m -48.95713,-74.62399 h 24.95388 l 4.75312,-120.016282 -29.707,120.016282 z"
       inkscape:connector-curvature="0"
       style="fill:#000000;fill-opacity:1" />
    <path
       id="path13"
       d="m 548.34621,120.9407 28.51872,-77.47586 h 27.56809 l -48.00651,112.17364 17.8242,120.72925 h -27.5681 l -8.0803,-86.26913 -31.60825,86.26913 h -27.5681 L 530.28435,155.63848 514.3614,43.46484 h 27.56809 l 6.41672,77.47586 z"
       inkscape:connector-curvature="0"
       style="fill:#000000;fill-opacity:1" />
    <path
       id="path15"
       d="M 626.77269,276.36773 639.84377,182.25595 628.43628,43.46484 h 27.33044 l 2.37656,100.52849 31.3706,-100.52849 h 27.33044 l -50.85839,138.79111 -13.07108,94.11178 h -26.14216 z"
       inkscape:connector-curvature="0"
       style="fill:#000000;fill-opacity:1" />
    <path
       id="path17"
       d="m 768.17802,276.36773 2.37656,-16.63592 70.82149,-191.313089 h -44.67933 l 3.80249,-24.953881 h 72.48509 l -2.37656,16.635921 -71.29681,191.313089 h 45.86761 l -3.32718,24.95388 h -73.67336 z"
       inkscape:connector-curvature="0"
       style="fill:#000000;fill-opacity:1" />
    <path
       id="path19"
       d="M 881.77759,238.58042 904.11725,80.776834 C 907.44444,56.773577 918.85193,39.9 950.69783,39.9 c 31.84591,0 38.50027,16.873577 35.17309,40.876834 L 963.53126,238.58042 c -3.32719,24.00326 -14.73468,40.87684 -46.58058,40.87684 -31.84591,0 -38.50028,-16.87358 -35.17309,-40.87684 z m 25.9045,0 c -1.42593,9.98156 0.95063,17.58655 12.59577,17.58655 11.64515,0 15.92295,-7.60499 17.34889,-17.58655 L 959.96642,80.776834 c 1.42593,-9.981553 -0.95063,-17.586545 -12.59577,-17.586545 -11.64515,0 -15.92296,7.604992 -17.34889,17.586545 L 907.68209,238.58042 z"
       inkscape:connector-curvature="0"
       style="fill:#000000;fill-opacity:1" />
    <path
       id="path21"
       d="M 1005.1211,238.58042 1027.4607,80.776834 C 1030.7879,56.773577 1042.1954,39.9 1074.0413,39.9 c 31.8459,0 38.5003,16.873577 35.1731,40.876834 l -22.3397,157.803586 c -3.3272,24.00326 -14.7346,40.87684 -46.5806,40.87684 -31.8459,0 -38.5002,-16.87358 -35.173,-40.87684 z m 26.1421,0 c -1.4259,9.98156 0.9506,17.58655 12.5958,17.58655 11.6451,0 15.9229,-7.60499 17.3489,-17.58655 l 22.3396,-157.803586 c 1.426,-9.981553 -0.9506,-17.586545 -12.5957,-17.586545 -11.6452,0 -15.923,7.604992 -17.3489,17.586545 l -22.3397,157.803586 z"
       inkscape:connector-curvature="0"
       style="fill:#000000;fill-opacity:1" />
  </g>
</svg>
